<svg width="103" height="18" viewBox="0 0 103 18" fill="none" xmlns="http://www.w3.org/2000/svg">
<path d="M12.4517 2.53095L12.4517 2.53094C12.2668 2.15625 11.7329 2.15648 11.5483 2.53085L11.5483 2.53095L9.96926 5.73045C9.96926 5.73045 9.96925 5.73046 9.96925 5.73046C9.82302 6.0268 9.54031 6.23212 9.21331 6.27958C9.21329 6.27958 9.21326 6.27958 9.21324 6.27959L5.68233 6.79268L5.68225 6.79269C5.26904 6.85259 5.10385 7.36029 5.40299 7.65208C5.403 7.65209 5.40301 7.6521 5.40303 7.65212L7.95798 10.1425L7.95804 10.1426C8.19442 10.3731 8.30258 10.7056 8.24655 11.0312M12.4517 2.53095L8.00017 10.9889M12.4517 2.53095L14.0307 5.73045M12.4517 2.53095L14.0307 5.73045M8.24655 11.0312L8.00017 10.9889M8.24655 11.0312L8.24657 11.0311L8.00017 10.9889M8.24655 11.0312L7.64352 14.5478L7.64352 14.5478C7.57285 14.9595 8.00508 15.2735 8.37472 15.0792L8.37475 15.0791L11.5328 13.4189L11.5329 13.4189C11.8253 13.2653 12.1747 13.2653 12.4671 13.4189L12.4672 13.4189L15.6252 15.0791M8.00017 10.9889L7.39712 14.5055C7.2914 15.1214 7.93797 15.5913 8.49108 15.3004L11.6491 13.6402C11.8687 13.5249 12.1313 13.5249 12.3509 13.6402L15.5089 15.3004M15.6252 15.0791L15.5089 15.3004M15.6252 15.0791C15.995 15.2734 16.4271 14.9593 16.3565 14.5478L16.3565 14.5478L15.7534 11.0312M15.6252 15.0791L15.6253 15.0791L15.5089 15.3004M15.5089 15.3004C16.062 15.591 16.7086 15.1214 16.6029 14.5055M18.3536 6.54528C18.9721 6.63522 19.2189 7.3951 18.7715 7.8311M18.3536 6.54528L14.8226 6.03218C14.577 5.99655 14.3647 5.84235 14.2549 5.61983L18.7715 7.8311M18.3536 6.54528L18.3177 6.79268M18.3536 6.54528L18.3177 6.79268M18.7715 7.8311L16.2165 10.3216M18.7715 7.8311L16.2165 10.3216M14.0307 5.73045C14.177 6.0268 14.4597 6.23212 14.7867 6.27958C14.7867 6.27958 14.7867 6.27958 14.7868 6.27959L18.3176 6.79268L14.0307 5.73045ZM18.3177 6.79268C18.7312 6.85284 18.896 7.36073 18.597 7.65206L18.597 7.65208L16.042 10.1425L16.042 10.1426C15.8056 10.3731 15.6974 10.7055 15.7534 11.0311L15.9998 10.9889M18.3177 6.79268L15.7534 11.0312M16.2165 10.3216C16.039 10.4947 15.9578 10.7444 15.9998 10.9889M16.2165 10.3216L16.6029 14.5055M15.9998 10.9889L16.6029 14.5055M15.9998 10.9889L15.7534 11.0312M16.6029 14.5055L15.7534 11.0312" stroke="#F4AA2A" stroke-width="0.5"/>
<path d="M32.4517 2.53095L32.4517 2.53094C32.2668 2.15625 31.7329 2.15648 31.5483 2.53085L31.5483 2.53095L29.9693 5.73045C29.9693 5.73045 29.9693 5.73046 29.9693 5.73046C29.823 6.0268 29.5403 6.23212 29.2133 6.27958C29.2133 6.27958 29.2133 6.27958 29.2132 6.27959L25.6823 6.79268L25.6822 6.79269C25.269 6.85259 25.1038 7.36029 25.403 7.65208C25.403 7.65209 25.403 7.6521 25.403 7.65212L27.958 10.1425L27.958 10.1426C28.1944 10.3731 28.3026 10.7056 28.2465 11.0312M32.4517 2.53095L28.0002 10.9889M32.4517 2.53095L34.0307 5.73045M32.4517 2.53095L34.0307 5.73045M28.2465 11.0312L28.0002 10.9889M28.2465 11.0312L28.2466 11.0311L28.0002 10.9889M28.2465 11.0312L27.6435 14.5478L27.6435 14.5478C27.5728 14.9595 28.0051 15.2735 28.3747 15.0792L28.3747 15.0791L31.5328 13.4189L31.5329 13.4189C31.8253 13.2653 32.1747 13.2653 32.4671 13.4189L32.4672 13.4189L35.6252 15.0791M28.0002 10.9889L27.3971 14.5055C27.2914 15.1214 27.938 15.5913 28.4911 15.3004L31.6491 13.6402C31.8687 13.5249 32.1313 13.5249 32.3509 13.6402L35.5089 15.3004M35.6252 15.0791L35.5089 15.3004M35.6252 15.0791C35.995 15.2734 36.4271 14.9593 36.3565 14.5478L36.3565 14.5478L35.7534 11.0312M35.6252 15.0791L35.6253 15.0791L35.5089 15.3004M35.5089 15.3004C36.062 15.591 36.7086 15.1214 36.6029 14.5055M38.3536 6.54528C38.9721 6.63522 39.2189 7.3951 38.7715 7.8311M38.3536 6.54528L34.8226 6.03218C34.577 5.99655 34.3647 5.84235 34.2549 5.61983L38.7715 7.8311M38.3536 6.54528L38.3177 6.79268M38.3536 6.54528L38.3177 6.79268M38.7715 7.8311L36.2165 10.3216M38.7715 7.8311L36.2165 10.3216M34.0307 5.73045C34.177 6.0268 34.4597 6.23212 34.7867 6.27958C34.7867 6.27958 34.7867 6.27958 34.7868 6.27959L38.3176 6.79268L34.0307 5.73045ZM38.3177 6.79268C38.7312 6.85284 38.896 7.36073 38.597 7.65206L38.597 7.65208L36.042 10.1425L36.042 10.1426C35.8056 10.3731 35.6974 10.7055 35.7534 11.0311L35.9998 10.9889M38.3177 6.79268L35.7534 11.0312M36.2165 10.3216C36.039 10.4947 35.9578 10.7444 35.9998 10.9889M36.2165 10.3216L36.6029 14.5055M35.9998 10.9889L36.6029 14.5055M35.9998 10.9889L35.7534 11.0312M36.6029 14.5055L35.7534 11.0312" stroke="#F4AA2A" stroke-width="0.5"/>
<path d="M52.4517 2.53095L52.4517 2.53094C52.2668 2.15625 51.7329 2.15648 51.5483 2.53085L51.5483 2.53095L49.9693 5.73045C49.9693 5.73045 49.9693 5.73046 49.9693 5.73046C49.823 6.0268 49.5403 6.23212 49.2133 6.27958C49.2133 6.27958 49.2133 6.27958 49.2132 6.27959L45.6823 6.79268L45.6822 6.79269C45.269 6.85259 45.1038 7.36029 45.403 7.65208C45.403 7.65209 45.403 7.6521 45.403 7.65212L47.958 10.1425L47.958 10.1426C48.1944 10.3731 48.3026 10.7056 48.2465 11.0312M52.4517 2.53095L48.0002 10.9889M52.4517 2.53095L54.0307 5.73045M52.4517 2.53095L54.0307 5.73045M48.2465 11.0312L48.0002 10.9889M48.2465 11.0312L48.2466 11.0311L48.0002 10.9889M48.2465 11.0312L47.6435 14.5478L47.6435 14.5478C47.5728 14.9595 48.0051 15.2735 48.3747 15.0792L48.3747 15.0791L51.5328 13.4189L51.5329 13.4189C51.8253 13.2653 52.1747 13.2653 52.4671 13.4189L52.4672 13.4189L55.6252 15.0791M48.0002 10.9889L47.3971 14.5055C47.2914 15.1214 47.938 15.5913 48.4911 15.3004L51.6491 13.6402C51.8687 13.5249 52.1313 13.5249 52.3509 13.6402L55.5089 15.3004M55.6252 15.0791L55.5089 15.3004M55.6252 15.0791C55.995 15.2734 56.4271 14.9593 56.3565 14.5478L56.3565 14.5478L55.7534 11.0312M55.6252 15.0791L55.6253 15.0791L55.5089 15.3004M55.5089 15.3004C56.062 15.591 56.7086 15.1214 56.6029 14.5055M58.3536 6.54528C58.9721 6.63522 59.2189 7.3951 58.7715 7.8311M58.3536 6.54528L54.8226 6.03218C54.577 5.99655 54.3647 5.84235 54.2549 5.61983L58.7715 7.8311M58.3536 6.54528L58.3177 6.79268M58.3536 6.54528L58.3177 6.79268M58.7715 7.8311L56.2165 10.3216M58.7715 7.8311L56.2165 10.3216M54.0307 5.73045C54.177 6.0268 54.4597 6.23212 54.7867 6.27958C54.7867 6.27958 54.7867 6.27958 54.7868 6.27959L58.3176 6.79268L54.0307 5.73045ZM58.3177 6.79268C58.7312 6.85284 58.896 7.36073 58.597 7.65206L58.597 7.65208L56.042 10.1425L56.042 10.1426C55.8056 10.3731 55.6974 10.7055 55.7534 11.0311L55.9998 10.9889M58.3177 6.79268L55.7534 11.0312M56.2165 10.3216C56.039 10.4947 55.9578 10.7444 55.9998 10.9889M56.2165 10.3216L56.6029 14.5055M55.9998 10.9889L56.6029 14.5055M55.9998 10.9889L55.7534 11.0312M56.6029 14.5055L55.7534 11.0312" stroke="#F4AA2A" stroke-width="0.5"/>
<path d="M72.4517 2.53095L72.4517 2.53094C72.2668 2.15625 71.7329 2.15648 71.5483 2.53085L71.5483 2.53095L69.9693 5.73045C69.9693 5.73045 69.9693 5.73046 69.9693 5.73046C69.823 6.0268 69.5403 6.23212 69.2133 6.27958C69.2133 6.27958 69.2133 6.27958 69.2132 6.27959L65.6823 6.79268L65.6822 6.79269C65.269 6.85259 65.1038 7.36029 65.403 7.65208C65.403 7.65209 65.403 7.6521 65.403 7.65212L67.958 10.1425L67.958 10.1426C68.1944 10.3731 68.3026 10.7056 68.2465 11.0312M72.4517 2.53095L68.0002 10.9889M72.4517 2.53095L74.0307 5.73045M72.4517 2.53095L74.0307 5.73045M68.2465 11.0312L68.0002 10.9889M68.2465 11.0312L68.2466 11.0311L68.0002 10.9889M68.2465 11.0312L67.6435 14.5478L67.6435 14.5478C67.5728 14.9595 68.0051 15.2735 68.3747 15.0792L68.3747 15.0791L71.5328 13.4189L71.5329 13.4189C71.8253 13.2653 72.1747 13.2653 72.4671 13.4189L72.4672 13.4189L75.6252 15.0791M68.0002 10.9889L67.3971 14.5055C67.2914 15.1214 67.938 15.5913 68.4911 15.3004L71.6491 13.6402C71.8687 13.5249 72.1313 13.5249 72.3509 13.6402L75.5089 15.3004M75.6252 15.0791L75.5089 15.3004M75.6252 15.0791C75.995 15.2734 76.4271 14.9593 76.3565 14.5478L76.3565 14.5478L75.7534 11.0312M75.6252 15.0791L75.6253 15.0791L75.5089 15.3004M75.5089 15.3004C76.062 15.591 76.7086 15.1214 76.6029 14.5055M78.3536 6.54528C78.9721 6.63522 79.2189 7.3951 78.7715 7.8311M78.3536 6.54528L74.8226 6.03218C74.577 5.99655 74.3647 5.84235 74.2549 5.61983L78.7715 7.8311M78.3536 6.54528L78.3177 6.79268M78.3536 6.54528L78.3177 6.79268M78.7715 7.8311L76.2165 10.3216M78.7715 7.8311L76.2165 10.3216M74.0307 5.73045C74.177 6.0268 74.4597 6.23212 74.7867 6.27958C74.7867 6.27958 74.7867 6.27958 74.7868 6.27959L78.3176 6.79268L74.0307 5.73045ZM78.3177 6.79268C78.7312 6.85284 78.896 7.36073 78.597 7.65206L78.597 7.65208L76.042 10.1425L76.042 10.1426C75.8056 10.3731 75.6974 10.7055 75.7534 11.0311L75.9998 10.9889M78.3177 6.79268L75.7534 11.0312M76.2165 10.3216C76.039 10.4947 75.9578 10.7444 75.9998 10.9889M76.2165 10.3216L76.6029 14.5055M75.9998 10.9889L76.6029 14.5055M75.9998 10.9889L75.7534 11.0312M76.6029 14.5055L75.7534 11.0312" stroke="#F4AA2A" stroke-width="0.5"/>
<path d="M92.4517 2.53095L92.4517 2.53094C92.2668 2.15625 91.7329 2.15648 91.5483 2.53085L91.5483 2.53095L89.9693 5.73045C89.9693 5.73045 89.9693 5.73046 89.9693 5.73046C89.823 6.0268 89.5403 6.23212 89.2133 6.27958C89.2133 6.27958 89.2133 6.27958 89.2132 6.27959L85.6823 6.79268L85.6822 6.79269C85.269 6.85259 85.1038 7.36029 85.403 7.65208C85.403 7.65209 85.403 7.6521 85.403 7.65212L87.958 10.1425L87.958 10.1426C88.1944 10.3731 88.3026 10.7056 88.2465 11.0312M92.4517 2.53095L88.0002 10.9889M92.4517 2.53095L94.0307 5.73045M92.4517 2.53095L94.0307 5.73045M88.2465 11.0312L88.0002 10.9889M88.2465 11.0312L88.2466 11.0311L88.0002 10.9889M88.2465 11.0312L87.6435 14.5478L87.6435 14.5478C87.5728 14.9595 88.0051 15.2735 88.3747 15.0792L88.3747 15.0791L91.5328 13.4189L91.5329 13.4189C91.8253 13.2653 92.1747 13.2653 92.4671 13.4189L92.4672 13.4189L95.6252 15.0791M88.0002 10.9889L87.3971 14.5055C87.2914 15.1214 87.938 15.5913 88.4911 15.3004L91.6491 13.6402C91.8687 13.5249 92.1313 13.5249 92.3509 13.6402L95.5089 15.3004M95.6252 15.0791L95.5089 15.3004M95.6252 15.0791C95.995 15.2734 96.4271 14.9593 96.3565 14.5478L96.3565 14.5478L95.7534 11.0312M95.6252 15.0791L95.6253 15.0791L95.5089 15.3004M95.5089 15.3004C96.062 15.591 96.7086 15.1214 96.6029 14.5055M98.3536 6.54528C98.9721 6.63522 99.2189 7.3951 98.7715 7.8311M98.3536 6.54528L94.8226 6.03218C94.577 5.99655 94.3647 5.84235 94.2549 5.61983L98.7715 7.8311M98.3536 6.54528L98.3177 6.79268M98.3536 6.54528L98.3177 6.79268M98.7715 7.8311L96.2165 10.3216M98.7715 7.8311L96.2165 10.3216M94.0307 5.73045C94.177 6.0268 94.4597 6.23212 94.7867 6.27958C94.7867 6.27958 94.7867 6.27958 94.7868 6.27959L98.3176 6.79268L94.0307 5.73045ZM98.3177 6.79268C98.7312 6.85284 98.896 7.36073 98.597 7.65206L98.597 7.65208L96.042 10.1425L96.042 10.1426C95.8056 10.3731 95.6974 10.7055 95.7534 11.0311L95.9998 10.9889M98.3177 6.79268L95.7534 11.0312M96.2165 10.3216C96.039 10.4947 95.9578 10.7444 95.9998 10.9889M96.2165 10.3216L96.6029 14.5055M95.9998 10.9889L96.6029 14.5055M95.9998 10.9889L95.7534 11.0312M96.6029 14.5055L95.7534 11.0312" stroke="#F4AA2A" stroke-width="0.5"/>
</svg>
