<svg width="103" height="18" viewBox="0 0 103 18" fill="none" xmlns="http://www.w3.org/2000/svg">
<path d="M12.6759 2.42031L14.2549 5.61982C14.3647 5.84235 14.577 5.99655 14.8226 6.03218L18.3536 6.54528C18.9721 6.63522 19.2189 7.39509 18.7715 7.8311L16.2165 10.3216C16.039 10.4947 15.9578 10.7444 15.9998 10.9889L16.6029 14.5055C16.7086 15.1214 16.062 15.591 15.5089 15.3004L12.3509 13.6402C12.1313 13.5249 11.8687 13.5249 11.6491 13.6402L8.49108 15.3004C7.93797 15.5913 7.2914 15.1214 7.39712 14.5055L8.00017 10.9889C8.04222 10.7444 7.96104 10.4947 7.78348 10.3216L5.22848 7.8311C4.78109 7.3948 5.02786 6.63493 5.64638 6.54528L9.17735 6.03218C9.42295 5.99655 9.63526 5.84235 9.74507 5.61982L11.3241 2.42031C11.6004 1.8599 12.3994 1.8599 12.6759 2.42031Z" fill="#F4AA2A"/>
<path d="M32.6759 2.42031L34.2549 5.61982C34.3647 5.84235 34.577 5.99655 34.8226 6.03218L38.3536 6.54528C38.9721 6.63522 39.2189 7.39509 38.7715 7.8311L36.2165 10.3216C36.039 10.4947 35.9578 10.7444 35.9998 10.9889L36.6029 14.5055C36.7086 15.1214 36.062 15.591 35.5089 15.3004L32.3509 13.6402C32.1313 13.5249 31.8687 13.5249 31.6491 13.6402L28.4911 15.3004C27.938 15.5913 27.2914 15.1214 27.3971 14.5055L28.0002 10.9889C28.0422 10.7444 27.961 10.4947 27.7835 10.3216L25.2285 7.8311C24.7811 7.3948 25.0279 6.63493 25.6464 6.54528L29.1774 6.03218C29.423 5.99655 29.6353 5.84235 29.7451 5.61982L31.3241 2.42031C31.6004 1.8599 32.3994 1.8599 32.6759 2.42031Z" fill="#F4AA2A"/>
<path d="M52.6759 2.42031L54.2549 5.61982C54.3647 5.84235 54.577 5.99655 54.8226 6.03218L58.3536 6.54528C58.9721 6.63522 59.2189 7.39509 58.7715 7.8311L56.2165 10.3216C56.039 10.4947 55.9578 10.7444 55.9998 10.9889L56.6029 14.5055C56.7086 15.1214 56.062 15.591 55.5089 15.3004L52.3509 13.6402C52.1313 13.5249 51.8687 13.5249 51.6491 13.6402L48.4911 15.3004C47.938 15.5913 47.2914 15.1214 47.3971 14.5055L48.0002 10.9889C48.0422 10.7444 47.961 10.4947 47.7835 10.3216L45.2285 7.8311C44.7811 7.3948 45.0279 6.63493 45.6464 6.54528L49.1774 6.03218C49.423 5.99655 49.6353 5.84235 49.7451 5.61982L51.3241 2.42031C51.6004 1.8599 52.3994 1.8599 52.6759 2.42031Z" fill="#F4AA2A"/>
<path d="M72.4517 2.53095L72.4517 2.53094C72.2668 2.15625 71.7329 2.15648 71.5483 2.53085L71.5483 2.53095L69.9693 5.73045C69.9693 5.73045 69.9693 5.73046 69.9693 5.73046C69.823 6.0268 69.5403 6.23212 69.2133 6.27958C69.2133 6.27958 69.2133 6.27958 69.2132 6.27959L65.6823 6.79268L65.6822 6.79269C65.269 6.85259 65.1038 7.36029 65.403 7.65208C65.403 7.65209 65.403 7.6521 65.403 7.65212L67.958 10.1425L67.958 10.1426C68.1944 10.3731 68.3026 10.7056 68.2465 11.0312M72.4517 2.53095L68.0002 10.9889M72.4517 2.53095L74.0307 5.73045M72.4517 2.53095L74.0307 5.73045M68.2465 11.0312L68.0002 10.9889M68.2465 11.0312L68.2466 11.0311L68.0002 10.9889M68.2465 11.0312L67.6435 14.5478L67.6435 14.5478C67.5728 14.9595 68.0051 15.2735 68.3747 15.0792L68.3747 15.0791L71.5328 13.4189L71.5329 13.4189C71.8253 13.2653 72.1747 13.2653 72.4671 13.4189L72.4672 13.4189L75.6252 15.0791M68.0002 10.9889L67.3971 14.5055C67.2914 15.1214 67.938 15.5913 68.4911 15.3004L71.6491 13.6402C71.8687 13.5249 72.1313 13.5249 72.3509 13.6402L75.5089 15.3004M75.6252 15.0791L75.5089 15.3004M75.6252 15.0791C75.995 15.2734 76.4271 14.9593 76.3565 14.5478L76.3565 14.5478L75.7534 11.0312M75.6252 15.0791L75.6253 15.0791L75.5089 15.3004M75.5089 15.3004C76.062 15.591 76.7086 15.1214 76.6029 14.5055M78.3536 6.54528C78.9721 6.63522 79.2189 7.3951 78.7715 7.8311M78.3536 6.54528L74.8226 6.03218C74.577 5.99655 74.3647 5.84235 74.2549 5.61983L78.7715 7.8311M78.3536 6.54528L78.3177 6.79268M78.3536 6.54528L78.3177 6.79268M78.7715 7.8311L76.2165 10.3216M78.7715 7.8311L76.2165 10.3216M74.0307 5.73045C74.177 6.0268 74.4597 6.23212 74.7867 6.27958C74.7867 6.27958 74.7867 6.27958 74.7868 6.27959L78.3176 6.79268L74.0307 5.73045ZM78.3177 6.79268C78.7312 6.85284 78.896 7.36073 78.597 7.65206L78.597 7.65208L76.042 10.1425L76.042 10.1426C75.8056 10.3731 75.6974 10.7055 75.7534 11.0311L75.9998 10.9889M78.3177 6.79268L75.7534 11.0312M76.2165 10.3216C76.039 10.4947 75.9578 10.7444 75.9998 10.9889M76.2165 10.3216L76.6029 14.5055M75.9998 10.9889L76.6029 14.5055M75.9998 10.9889L75.7534 11.0312M76.6029 14.5055L75.7534 11.0312" stroke="#F4AA2A" stroke-width="0.5"/>
<path d="M92.4517 2.53095L92.4517 2.53094C92.2668 2.15625 91.7329 2.15648 91.5483 2.53085L91.5483 2.53095L89.9693 5.73045C89.9693 5.73045 89.9693 5.73046 89.9693 5.73046C89.823 6.0268 89.5403 6.23212 89.2133 6.27958C89.2133 6.27958 89.2133 6.27958 89.2132 6.27959L85.6823 6.79268L85.6822 6.79269C85.269 6.85259 85.1038 7.36029 85.403 7.65208C85.403 7.65209 85.403 7.6521 85.403 7.65212L87.958 10.1425L87.958 10.1426C88.1944 10.3731 88.3026 10.7056 88.2465 11.0312M92.4517 2.53095L88.0002 10.9889M92.4517 2.53095L94.0307 5.73045M92.4517 2.53095L94.0307 5.73045M88.2465 11.0312L88.0002 10.9889M88.2465 11.0312L88.2466 11.0311L88.0002 10.9889M88.2465 11.0312L87.6435 14.5478L87.6435 14.5478C87.5728 14.9595 88.0051 15.2735 88.3747 15.0792L88.3747 15.0791L91.5328 13.4189L91.5329 13.4189C91.8253 13.2653 92.1747 13.2653 92.4671 13.4189L92.4672 13.4189L95.6252 15.0791M88.0002 10.9889L87.3971 14.5055C87.2914 15.1214 87.938 15.5913 88.4911 15.3004L91.6491 13.6402C91.8687 13.5249 92.1313 13.5249 92.3509 13.6402L95.5089 15.3004M95.6252 15.0791L95.5089 15.3004M95.6252 15.0791C95.995 15.2734 96.4271 14.9593 96.3565 14.5478L96.3565 14.5478L95.7534 11.0312M95.6252 15.0791L95.6253 15.0791L95.5089 15.3004M95.5089 15.3004C96.062 15.591 96.7086 15.1214 96.6029 14.5055M98.3536 6.54528C98.9721 6.63522 99.2189 7.3951 98.7715 7.8311M98.3536 6.54528L94.8226 6.03218C94.577 5.99655 94.3647 5.84235 94.2549 5.61983L98.7715 7.8311M98.3536 6.54528L98.3177 6.79268M98.3536 6.54528L98.3177 6.79268M98.7715 7.8311L96.2165 10.3216M98.7715 7.8311L96.2165 10.3216M94.0307 5.73045C94.177 6.0268 94.4597 6.23212 94.7867 6.27958C94.7867 6.27958 94.7867 6.27958 94.7868 6.27959L98.3176 6.79268L94.0307 5.73045ZM98.3177 6.79268C98.7312 6.85284 98.896 7.36073 98.597 7.65206L98.597 7.65208L96.042 10.1425L96.042 10.1426C95.8056 10.3731 95.6974 10.7055 95.7534 11.0311L95.9998 10.9889M98.3177 6.79268L95.7534 11.0312M96.2165 10.3216C96.039 10.4947 95.9578 10.7444 95.9998 10.9889M96.2165 10.3216L96.6029 14.5055M95.9998 10.9889L96.6029 14.5055M95.9998 10.9889L95.7534 11.0312M96.6029 14.5055L95.7534 11.0312" stroke="#F4AA2A" stroke-width="0.5"/>
</svg>
