<svg width="103" height="18" viewBox="0 0 103 18" fill="none" xmlns="http://www.w3.org/2000/svg">
<path d="M12.6759 2.42031L14.2549 5.61982C14.3647 5.84235 14.577 5.99655 14.8226 6.03218L18.3536 6.54528C18.9721 6.63522 19.2189 7.39509 18.7715 7.8311L16.2165 10.3216C16.039 10.4947 15.9578 10.7444 15.9998 10.9889L16.6029 14.5055C16.7086 15.1214 16.062 15.591 15.5089 15.3004L12.3509 13.6402C12.1313 13.5249 11.8687 13.5249 11.6491 13.6402L8.49108 15.3004C7.93797 15.5913 7.2914 15.1214 7.39712 14.5055L8.00017 10.9889C8.04222 10.7444 7.96104 10.4947 7.78348 10.3216L5.22848 7.8311C4.78109 7.3948 5.02786 6.63493 5.64638 6.54528L9.17735 6.03218C9.42295 5.99655 9.63526 5.84235 9.74507 5.61982L11.3241 2.42031C11.6004 1.8599 12.3994 1.8599 12.6759 2.42031Z" fill="#F4AA2A"/>
<path d="M32.6759 2.42031L34.2549 5.61982C34.3647 5.84235 34.577 5.99655 34.8226 6.03218L38.3536 6.54528C38.9721 6.63522 39.2189 7.39509 38.7715 7.8311L36.2165 10.3216C36.039 10.4947 35.9578 10.7444 35.9998 10.9889L36.6029 14.5055C36.7086 15.1214 36.062 15.591 35.5089 15.3004L32.3509 13.6402C32.1313 13.5249 31.8687 13.5249 31.6491 13.6402L28.4911 15.3004C27.938 15.5913 27.2914 15.1214 27.3971 14.5055L28.0002 10.9889C28.0422 10.7444 27.961 10.4947 27.7835 10.3216L25.2285 7.8311C24.7811 7.3948 25.0279 6.63493 25.6464 6.54528L29.1774 6.03218C29.423 5.99655 29.6353 5.84235 29.7451 5.61982L31.3241 2.42031C31.6004 1.8599 32.3994 1.8599 32.6759 2.42031Z" fill="#F4AA2A"/>
<path d="M52.6759 2.42031L54.2549 5.61982C54.3647 5.84235 54.577 5.99655 54.8226 6.03218L58.3536 6.54528C58.9721 6.63522 59.2189 7.39509 58.7715 7.8311L56.2165 10.3216C56.039 10.4947 55.9578 10.7444 55.9998 10.9889L56.6029 14.5055C56.7086 15.1214 56.062 15.591 55.5089 15.3004L52.3509 13.6402C52.1313 13.5249 51.8687 13.5249 51.6491 13.6402L48.4911 15.3004C47.938 15.5913 47.2914 15.1214 47.3971 14.5055L48.0002 10.9889C48.0422 10.7444 47.961 10.4947 47.7835 10.3216L45.2285 7.8311C44.7811 7.3948 45.0279 6.63493 45.6464 6.54528L49.1774 6.03218C49.423 5.99655 49.6353 5.84235 49.7451 5.61982L51.3241 2.42031C51.6004 1.8599 52.3994 1.8599 52.6759 2.42031Z" fill="#F4AA2A"/>
<path d="M72.6759 2.42031L74.2549 5.61982C74.3647 5.84235 74.577 5.99655 74.8226 6.03218L78.3536 6.54528C78.9721 6.63522 79.2189 7.39509 78.7715 7.8311L76.2165 10.3216C76.039 10.4947 75.9578 10.7444 75.9998 10.9889L76.6029 14.5055C76.7086 15.1214 76.062 15.591 75.5089 15.3004L72.3509 13.6402C72.1313 13.5249 71.8687 13.5249 71.6491 13.6402L68.4911 15.3004C67.938 15.5913 67.2914 15.1214 67.3971 14.5055L68.0002 10.9889C68.0422 10.7444 67.961 10.4947 67.7835 10.3216L65.2285 7.8311C64.7811 7.3948 65.0279 6.63493 65.6464 6.54528L69.1774 6.03218C69.423 5.99655 69.6353 5.84235 69.7451 5.61982L71.3241 2.42031C71.6004 1.8599 72.3994 1.8599 72.6759 2.42031Z" fill="#F4AA2A"/>
<path d="M92.6759 2.42031L94.2549 5.61982C94.3647 5.84235 94.577 5.99655 94.8226 6.03218L98.3536 6.54528C98.9721 6.63522 99.2189 7.39509 98.7715 7.8311L96.2165 10.3216C96.039 10.4947 95.9578 10.7444 95.9998 10.9889L96.6029 14.5055C96.7086 15.1214 96.062 15.591 95.5089 15.3004L92.3509 13.6402C92.1313 13.5249 91.8687 13.5249 91.6491 13.6402L88.4911 15.3004C87.938 15.5913 87.2914 15.1214 87.3971 14.5055L88.0002 10.9889C88.0422 10.7444 87.961 10.4947 87.7835 10.3216L85.2285 7.8311C84.7811 7.3948 85.0279 6.63493 85.6464 6.54528L89.1774 6.03218C89.423 5.99655 89.6353 5.84235 89.7451 5.61982L91.3241 2.42031C91.6004 1.8599 92.3994 1.8599 92.6759 2.42031Z" fill="#F4AA2A"/>
</svg>
