<svg width="74" height="75" viewBox="0 0 74 75" fill="none" xmlns="http://www.w3.org/2000/svg">
<path d="M68.5 40.5C68.5 57.6208 54.6208 71.5 37.5 71.5C20.3792 71.5 6.5 57.6208 6.5 40.5C6.5 23.3792 20.3792 9.5 37.5 9.5C54.6208 9.5 68.5 23.3792 68.5 40.5Z" fill="white" stroke="#CBCBCB" stroke-width="3"/>
<path d="M0.992029 24.1765C0.446544 24.0901 0.0728142 23.5774 0.175951 23.0349C0.909649 19.1751 2.33771 15.4775 4.39341 12.1229C6.44912 8.76832 9.09537 5.81725 12.2013 3.41124C12.6379 3.07302 13.2644 3.17329 13.589 3.6201L30.6852 27.151C31.2088 27.8718 30.5996 28.8658 29.7197 28.7265L0.992029 24.1765Z" fill="#F4AA2A"/>
<path d="M5.03516 25.1194C4.48967 25.033 4.11575 24.5203 4.2209 23.9781C4.88143 20.5723 6.14833 17.3098 7.96387 14.3471C9.77941 11.3844 12.1112 8.77445 14.8459 6.63968C15.2813 6.29984 15.9078 6.40026 16.2325 6.84707L31.2714 27.5464C31.795 28.2672 31.1859 29.2612 30.3059 29.1219L5.03516 25.1194Z" fill="#F4632A"/>
<path d="M26.5129 25.3269C25.9943 26.3022 24.7833 26.6724 23.808 26.1538C22.8328 25.6353 22.4625 24.4243 22.9811 23.449C23.4997 22.4737 24.7107 22.1035 25.6859 22.622C26.6612 23.1406 27.0314 24.3516 26.5129 25.3269Z" fill="#DB2C2C"/>
<path d="M16.555 12.1042C16.0364 13.0795 14.8254 13.4497 13.8501 12.9311C12.8749 12.4126 12.5046 11.2016 13.0232 10.2263C13.5418 9.25102 14.7527 8.88078 15.728 9.39934C16.7033 9.91791 17.0735 11.1289 16.555 12.1042Z" fill="#DB2C2C"/>
<path d="M10.4518 23.5825C9.93329 24.5578 8.72229 24.928 7.74701 24.4094C6.77174 23.8909 6.4015 22.6799 6.92006 21.7046C7.43863 20.7293 8.64962 20.3591 9.6249 20.8777C10.6002 21.3962 10.9704 22.6072 10.4518 23.5825Z" fill="#DB2C2C"/>
<path d="M21.3272 18.0393C20.8086 19.0146 19.5976 19.3848 18.6224 18.8663C17.6471 18.3477 17.2768 17.1367 17.7954 16.1614C18.314 15.1862 19.525 14.8159 20.5002 15.3345C21.4755 15.853 21.8458 17.064 21.3272 18.0393Z" fill="#DB2C2C"/>
<path d="M12.8552 16.9324C12.3366 17.9077 11.1256 18.2779 10.1504 17.7593C9.17509 17.2408 8.80485 16.0298 9.32341 15.0545C9.84198 14.0792 11.053 13.709 12.0283 14.2276C13.0035 14.7461 13.3738 15.9571 12.8552 16.9324Z" fill="#DB2C2C"/>
<path d="M18.0409 24.2199C17.5223 25.1952 16.3113 25.5655 15.3361 25.0469C14.3608 24.5283 13.9905 23.3173 14.5091 22.3421C15.0277 21.3668 16.2387 20.9965 17.2139 21.5151C18.1892 22.0337 18.5595 23.2447 18.0409 24.2199Z" fill="#DB2C2C"/>
<path d="M72.8207 54.4147C73.3327 54.6216 73.5816 55.2051 73.359 55.7106C71.7759 59.3063 69.5526 62.5879 66.795 65.3941C64.0374 68.2003 60.7951 70.4805 57.2275 72.1261C56.726 72.3575 56.1382 72.1188 55.9224 71.6105L44.5577 44.8368C44.2096 44.0168 45.0268 43.1852 45.8528 43.5189L72.8207 54.4147Z" fill="#F4AA2A"/>
<path d="M69.0932 52.5862C69.6053 52.7931 69.8543 53.3767 69.6299 53.8814C68.2201 57.0514 66.2518 59.9453 63.8163 62.4236C61.3809 64.902 58.5218 66.9205 55.3769 68.3853C54.8762 68.6185 54.2883 68.3798 54.0725 67.8714L44.0754 44.3195C43.7273 43.4994 44.5445 42.6679 45.3705 43.0016L69.0932 52.5862Z" fill="#F4632A"/>
<path d="M48.2127 47.5528C48.9373 46.7191 50.2006 46.6308 51.0342 47.3555C51.8679 48.0801 51.9562 49.3434 51.2315 50.177C50.5069 51.0106 49.2436 51.099 48.41 50.3743C47.5764 49.6497 47.488 48.3864 48.2127 47.5528Z" fill="#DB2C2C"/>
<path d="M54.9409 62.6766C55.6656 61.843 56.9288 61.7547 57.7625 62.4793C58.5961 63.204 58.6844 64.4672 57.9598 65.3009C57.2351 66.1345 55.9718 66.2228 55.1382 65.4982C54.3046 64.7735 54.2163 63.5103 54.9409 62.6766Z" fill="#DB2C2C"/>
<path d="M63.4697 52.8654C64.1943 52.0318 65.4576 51.9434 66.2912 52.6681C67.1248 53.3928 67.2132 54.656 66.4885 55.4896C65.7639 56.3233 64.5006 56.4116 63.667 55.6869C62.8334 54.9623 62.745 53.699 63.4697 52.8654Z" fill="#DB2C2C"/>
<path d="M51.6261 55.8201C52.3508 54.9865 53.614 54.8981 54.4477 55.6228C55.2813 56.3475 55.3696 57.6107 54.645 58.4443C53.9203 59.278 52.6571 59.3663 51.8234 58.6416C50.9898 57.917 50.9015 56.6537 51.6261 55.8201Z" fill="#DB2C2C"/>
<path d="M59.632 58.8044C60.3566 57.9708 61.6199 57.8825 62.4535 58.6071C63.2871 59.3318 63.3755 60.595 62.6508 61.4287C61.9262 62.2623 60.6629 62.3506 59.8293 61.626C58.9956 60.9013 58.9073 59.6381 59.632 58.8044Z" fill="#DB2C2C"/>
<path d="M56.2185 50.5371C56.9432 49.7035 58.2064 49.6152 59.0401 50.3398C59.8737 51.0645 59.962 52.3277 59.2374 53.1614C58.5127 53.995 57.2495 54.0833 56.4158 53.3587C55.5822 52.634 55.4939 51.3708 56.2185 50.5371Z" fill="#DB2C2C"/>
<path d="M22.1576 73.5184C22.0428 74.0586 21.5113 74.405 20.9749 74.2736C17.1588 73.3389 13.5411 71.7193 10.2986 69.4908C7.05621 67.2624 4.24768 64.4653 2.00752 61.2377C1.69261 60.784 1.82553 60.1637 2.28871 59.8629L26.6821 44.0216C27.4293 43.5364 28.3901 44.1968 28.2049 45.0682L22.1576 73.5184Z" fill="#F4AA2A"/>
<path d="M23.3109 69.5302C23.196 70.0704 22.6645 70.4169 22.1286 70.2836C18.7619 69.4457 15.5702 68.0098 12.7066 66.0417C9.84299 64.0736 7.35865 61.6084 5.36994 58.7657C5.05335 58.3131 5.18642 57.6927 5.64961 57.3919L27.1077 43.4569C27.8548 42.9717 28.8157 43.632 28.6305 44.5035L23.3109 69.5302Z" fill="#F4632A"/>
<path d="M24.6421 48.0927C25.5889 48.6616 25.8953 49.8903 25.3264 50.8371C24.7575 51.7839 23.5288 52.0903 22.582 51.5214C21.6352 50.9525 21.3288 49.7238 21.8977 48.777C22.4666 47.8302 23.6953 47.5238 24.6421 48.0927Z" fill="#DB2C2C"/>
<path d="M10.9164 57.345C11.8632 57.9139 12.1696 59.1426 11.6007 60.0894C11.0318 61.0362 9.80305 61.3425 8.85624 60.7736C7.90944 60.2047 7.60309 58.976 8.17199 58.0292C8.74088 57.0824 9.9696 56.7761 10.9164 57.345Z" fill="#DB2C2C"/>
<path d="M22.0596 64.0404C23.0064 64.6093 23.3127 65.8381 22.7438 66.7849C22.1749 67.7317 20.9462 68.038 19.9994 67.4691C19.0526 66.9002 18.7463 65.6715 19.3152 64.7247C19.8841 63.7779 21.1128 63.4716 22.0596 64.0404Z" fill="#DB2C2C"/>
<path d="M17.0932 52.8899C18.04 53.4588 18.3463 54.6875 17.7774 55.6343C17.2085 56.5811 15.9798 56.8875 15.033 56.3186C14.0862 55.7497 13.7799 54.521 14.3488 53.5742C14.9176 52.6274 16.1464 52.321 17.0932 52.8899Z" fill="#DB2C2C"/>
<path d="M15.5444 61.2923C16.4912 61.8612 16.7975 63.09 16.2286 64.0368C15.6597 64.9836 14.431 65.2899 13.4842 64.721C12.5374 64.1521 12.2311 62.9234 12.8 61.9766C13.3688 61.0298 14.5976 60.7235 15.5444 61.2923Z" fill="#DB2C2C"/>
<path d="M23.0933 56.4952C24.0401 57.0641 24.3465 58.2928 23.7776 59.2396C23.2087 60.1864 21.98 60.4927 21.0332 59.9238C20.0864 59.3549 19.78 58.1262 20.3489 57.1794C20.9178 56.2326 22.1465 55.9263 23.0933 56.4952Z" fill="#DB2C2C"/>
<path d="M53.3045 1.52577C53.4287 0.987641 53.9661 0.65058 54.5002 0.791313C58.2994 1.79247 61.8883 3.47497 65.0913 5.75968C68.2944 8.04439 71.0537 10.89 73.2372 14.1563C73.5441 14.6154 73.4004 15.2333 72.932 15.526L48.2659 30.9391C47.5103 31.4112 46.5612 30.7342 46.7616 29.8661L53.3045 1.52577Z" fill="#F4AA2A"/>
<path d="M52.0818 5.49327C52.206 4.95514 52.7435 4.6179 53.2771 4.76061C56.6285 5.65712 59.7947 7.1485 62.6236 9.16629C65.4524 11.1841 67.8933 13.6922 69.8321 16.5692C70.1408 17.0272 69.9969 17.6452 69.5285 17.9379L47.8305 31.4963C47.075 31.9684 46.1258 31.2914 46.3262 30.4233L52.0818 5.49327Z" fill="#F4632A"/>
<path d="M50.3766 26.9042C49.4399 26.3189 49.155 25.085 49.7403 24.1483C50.3257 23.2115 51.5595 22.9267 52.4963 23.512C53.433 24.0973 53.7179 25.3312 53.1325 26.268C52.5472 27.2047 51.3133 27.4895 50.3766 26.9042Z" fill="#DB2C2C"/>
<path d="M64.2617 17.8929C63.325 17.3076 63.0401 16.0737 63.6255 15.137C64.2108 14.2003 65.4447 13.9154 66.3814 14.5007C67.3181 15.0861 67.603 16.3199 67.0176 17.2567C66.4323 18.1934 65.1984 18.4783 64.2617 17.8929Z" fill="#DB2C2C"/>
<path d="M53.2371 11.004C52.3004 10.4186 52.0155 9.18477 52.6008 8.24805C53.1862 7.31132 54.42 7.02646 55.3568 7.61179C56.2935 8.19712 56.5784 9.431 55.993 10.3677C55.4077 11.3045 54.1738 11.5893 53.2371 11.004Z" fill="#DB2C2C"/>
<path d="M58.0081 22.2395C57.0714 21.6542 56.7865 20.4203 57.3719 19.4836C57.9572 18.5468 59.1911 18.262 60.1278 18.8473C61.0645 19.4326 61.3494 20.6665 60.7641 21.6032C60.1787 22.54 58.9449 22.8248 58.0081 22.2395Z" fill="#DB2C2C"/>
<path d="M59.7033 13.8654C58.7666 13.28 58.4818 12.0462 59.0671 11.1094C59.6524 10.1727 60.8863 9.88784 61.823 10.4732C62.7597 11.0585 63.0446 12.2924 62.4593 13.2291C61.8739 14.1658 60.6401 14.4507 59.7033 13.8654Z" fill="#DB2C2C"/>
<path d="M52.0718 18.5301C51.1351 17.9447 50.8502 16.7109 51.4355 15.7741C52.0209 14.8374 53.2547 14.5525 54.1915 15.1379C55.1282 15.7232 55.4131 16.9571 54.8277 17.8938C54.2424 18.8305 53.0085 19.1154 52.0718 18.5301Z" fill="#DB2C2C"/>
</svg>
