<svg width="19" height="20" viewBox="0 0 19 20" fill="none" xmlns="http://www.w3.org/2000/svg">
<path d="M7.75943 13.8439C8.59356 13.8439 9.37724 13.6858 10.1105 13.3696C10.8437 13.0535 11.4895 12.6162 12.0478 12.0579C12.6061 11.4928 13.0434 10.8437 13.3595 10.1105C13.6824 9.37724 13.8439 8.59356 13.8439 7.75943C13.8439 6.9253 13.6824 6.14162 13.3595 5.40839C13.0434 4.67516 12.6061 4.02939 12.0478 3.47106C11.4895 2.91273 10.8437 2.47548 10.1105 2.15932C9.37724 1.83643 8.59356 1.67499 7.75943 1.67499C6.9253 1.67499 6.14162 1.83643 5.40839 2.15932C4.67516 2.47548 4.02602 2.91273 3.46097 3.47106C2.90264 4.02939 2.46539 4.67516 2.14923 5.40839C1.83307 6.14162 1.67499 6.9253 1.67499 7.75943C1.67499 8.59356 1.83307 9.37724 2.14923 10.1105C2.46539 10.8437 2.90264 11.4928 3.46097 12.0579C4.02602 12.6162 4.67516 13.0535 5.40839 13.3696C6.14162 13.6858 6.9253 13.8439 7.75943 13.8439ZM7.75943 15.5189C6.68986 15.5189 5.68756 15.317 4.75252 14.9134C3.81749 14.5098 2.99345 13.9515 2.2804 13.2384C1.56736 12.5254 1.00903 11.7014 0.605417 10.7663C0.201806 9.8313 0 8.829 0 7.75943C0 6.68986 0.201806 5.68756 0.605417 4.75252C1.00903 3.81076 1.56736 2.98672 2.2804 2.2804C2.99345 1.56736 3.81749 1.00903 4.75252 0.605417C5.69428 0.201806 6.69658 0 7.75943 0C8.829 0 9.8313 0.201806 10.7663 0.605417C11.7014 1.00903 12.5254 1.56736 13.2385 2.2804C13.9515 2.99345 14.5098 3.81749 14.9134 4.75252C15.317 5.68756 15.5189 6.68986 15.5189 7.75943C15.5189 8.829 15.317 9.8313 14.9134 10.7663C14.5098 11.7014 13.9515 12.5254 13.2385 13.2384C12.5254 13.9515 11.7014 14.5098 10.7663 14.9134C9.8313 15.317 8.829 15.5189 7.75943 15.5189ZM17.88 19.1816C17.7253 19.1816 17.5773 19.1547 17.436 19.1009C17.2947 19.0471 17.1669 18.963 17.0526 18.8486L11.6946 13.4907L13.3494 11.8864L18.6771 17.2241C18.7915 17.3317 18.8722 17.4562 18.9193 17.5975C18.9731 17.7387 19 17.8833 19 18.0313C19 18.2466 18.9495 18.4383 18.8486 18.6065C18.7545 18.7814 18.6233 18.9193 18.4551 19.0202C18.287 19.1278 18.0952 19.1816 17.88 19.1816Z" fill="white"/>
</svg>
